<mxfile host="app.diagrams.net" modified="2021-12-13T02:08:57.750Z" agent="5.0 (Windows NT 10.0; Win64; x64) AppleWebKit/537.36 (KHTML, like Gecko) Chrome/96.0.4664.45 Safari/537.36" etag="G5MhVM8NP18bKX9UM8KC" version="15.8.6" type="github">
  <diagram id="Zv8kB7jCf1wios_NGq41" name="第 1 页">
    <mxGraphModel dx="1422" dy="772" grid="1" gridSize="10" guides="1" tooltips="1" connect="1" arrows="1" fold="1" page="0" pageScale="1" pageWidth="850" pageHeight="1100" math="0" shadow="0">
      <root>
        <mxCell id="0" />
        <mxCell id="1" parent="0" />
        <mxCell id="ZSFyrrmtXqsrIQpACvfG-4" value="" style="edgeStyle=orthogonalEdgeStyle;rounded=0;orthogonalLoop=1;jettySize=auto;html=1;" edge="1" parent="1" source="ZSFyrrmtXqsrIQpACvfG-1" target="ZSFyrrmtXqsrIQpACvfG-2">
          <mxGeometry relative="1" as="geometry" />
        </mxCell>
        <mxCell id="ZSFyrrmtXqsrIQpACvfG-1" value="供电测试" style="rounded=1;whiteSpace=wrap;html=1;absoluteArcSize=1;arcSize=14;strokeWidth=2;" vertex="1" parent="1">
          <mxGeometry x="360" y="120" width="120" height="40" as="geometry" />
        </mxCell>
        <mxCell id="ZSFyrrmtXqsrIQpACvfG-5" value="" style="edgeStyle=orthogonalEdgeStyle;rounded=0;orthogonalLoop=1;jettySize=auto;html=1;" edge="1" parent="1" source="ZSFyrrmtXqsrIQpACvfG-2" target="ZSFyrrmtXqsrIQpACvfG-3">
          <mxGeometry relative="1" as="geometry" />
        </mxCell>
        <mxCell id="ZSFyrrmtXqsrIQpACvfG-2" value="烧录测试程序" style="rounded=1;whiteSpace=wrap;html=1;absoluteArcSize=1;arcSize=14;strokeWidth=2;" vertex="1" parent="1">
          <mxGeometry x="360" y="200" width="120" height="40" as="geometry" />
        </mxCell>
        <mxCell id="ZSFyrrmtXqsrIQpACvfG-3" value="功能测试" style="rounded=1;whiteSpace=wrap;html=1;absoluteArcSize=1;arcSize=14;strokeWidth=2;" vertex="1" parent="1">
          <mxGeometry x="360" y="280" width="120" height="40" as="geometry" />
        </mxCell>
      </root>
    </mxGraphModel>
  </diagram>
</mxfile>
